<svg width="640" height="141" xmlns="http://www.w3.org/2000/svg" data-version="1" data-id="lg_mTPmKii0Y8ZXoRzBgb" xml:space="preserve">

 <g>
  <title>Layer 1</title>
  <g id="svg_1" data-padding="20">
   <g id="svg_2" transform="translate(10, 2.08) scale(0.9705)">
    <rect id="svg_3" fill="none" y="-1.9418" x="183.77166" height="119.78" width="495.232"/>
    <path id="svg_4" d="m231.82766,24.38818l-13.04,-0.21q-10.81,0 -15.05,0.74q-0.21,7.21 -0.21,22.26l18.12,-0.11l1.8,0q10.18,0 10.18,1.64q0,1.65 -0.74,3.61t-1.7,2.28q-0.95,0.32 -4.03,0.32l-23.42,-0.11q-0.11,3.07 -0.11,4.88l-0.1,8.58l0,5.94q0,6.99 0.31,7.63q0.64,1.27 19.72,1.27q6.57,0 9.43,-0.32l4.46,-0.84q1.59,0 1.59,1q0,1.01 -0.96,3.24q-1.06,3.6 -1.48,3.92q-1.17,0.63 -16.96,0.63l-19.4,0q-5.72,0 -6.62,-0.79q-0.91,-0.8 -0.91,-13.62l0.32,-37.84l0.11,-8.59l-0.11,-7.95q0,-3.6 0.64,-4.24q0.85,-0.95 6.15,-0.95l14.94,-0.22l13.99,0.11q4.99,0 5.52,0.58q0.53,0.59 0.53,1.12l-0.43,2.54q-0.1,0.53 -0.1,1.22t-0.06,1.01q-0.05,0.31 -0.26,0.63q-0.32,0.64 -2.12,0.64m33.92,53.21q2.01,-2.65 3.71,-5.99q1.69,-3.34 6.25,-13.2q4.56,-9.85 6.89,-14.31q0.32,-0.42 1.27,-0.42q0.96,0 2.5,0.85q1.53,0.85 1.85,1.48q0.11,0.74 -2.12,5.62q-8.27,19.5 -17.6,35.62l-0.84,1.59q-1.91,3.18 -3.18,3.18q-2.44,0 -4.67,-4.03q-10.07,-19.72 -12.45,-24.97q-2.39,-5.24 -3.77,-7.68q-3.28,-6.04 -3.28,-8.27q0,-1.06 2.65,-2.22q2.65,-1.17 3.66,-1.17l1.53,0q0.53,0 1.54,1.43t2.12,3.87t2.12,4.29q1.01,1.86 5.09,10.97q4.08,9.12 6.73,13.36m63.6,-13.04l-24.28,0.11q-3.92,0 -4.55,0.63q-0.53,0.75 -0.53,2.44q0,8.27 4.71,12.67q4.72,4.4 10.76,4.4t9.44,-1.59q0.1,0 2.12,-1.38q2.01,-1.38 2.81,-1.38q0.79,0 1.21,0.64q0.43,0.63 0.43,1.27q0,4.03 -5.94,6.84q-5.93,2.81 -13.83,2.81t-15.05,-6.36q-7.16,-6.36 -7.16,-17.18q0,-10.81 6.73,-17.8q6.73,-7 18.08,-7q8.26,0 13.35,4.88q5.41,5.08 5.41,12.29q0,3.71 -3.71,3.71m-27.56,-5.19q20.14,0 23.32,-0.21q-0.32,-4.24 -3.23,-7q-2.92,-2.76 -7.37,-2.76t-8.32,3.13t-4.4,6.84m43.55,-14.52l4.99,-0.11q0,0.53 0.63,2.65q0.64,-0.21 3.61,-1.27q6.99,-2.44 11.6,-2.44t8.11,1.43t5.41,3.6q1.91,2.18 3.07,5.78q1.7,5.83 1.7,15.48l-0.53,18.12q0,2.12 -0.37,2.44t-2.97,0.32t-5.99,-0.42q-0.32,-2.55 -0.32,-8.91l0.11,-13.57q0,-8.48 -2.86,-12.77q-2.87,-4.29 -9.81,-4.29t-10.55,2.01l0.22,14.21q0.1,9.54 0.1,14.84l0.21,6.25q0,1.7 -0.84,2.17q-0.85,0.48 -3.61,0.48l-5.51,-0.21l-0.42,-22.16l0.42,-16.11l0,-3.81q0,-3.71 3.6,-3.71m62.54,15.26l-0.21,15.26q0,4.35 1.49,6.63q1.48,2.28 4.98,2.28t5.93,-0.64q4.56,-1.27 4.56,1.27q0,7.11 -13.14,7.11q-7.42,0 -11.56,-6.68q-2.01,-4.24 -2.01,-10.07l0.21,-12.3l0.21,-8.9q0,-1.49 -0.42,-1.86t-1.59,-0.37l-4.13,0.32q-2.65,0 -2.65,-1.7q0,-2.96 0.69,-4.18q0.68,-1.22 2.59,-1.22l4.14,0.32q1.48,0 1.48,-3.61l0,-6.57q0,-2.76 0.11,-3.18q1.27,-0.64 8.37,-0.64q1.91,0 1.91,2.02l-0.32,11.66q1.27,0.1 4.13,0.1l8.48,-0.63q1.7,0 1.7,2.01q0,5.83 -5.72,5.83l-6.89,-0.42q-1.7,0 -2.12,0.21q-0.22,1.91 -0.22,7.95m105.79,-43.67l3.5,0.1l3.07,0.22q0.22,8.05 0.22,31.74t-0.32,29.05q-0.32,5.35 -0.32,7.26q0,3.71 -0.74,4.87q-0.74,1.17 -4.4,1.17t-4.03,-0.58q-0.37,-0.59 -0.37,-2.92l0,-5.62l0.21,-21.94q0,-3.5 -0.1,-5.93l-32.55,0.21q-4.98,0 -13.25,-0.21l0,20.14l0.11,10.07q-0.32,5.4 -1.17,6.04q-0.84,0.63 -4.5,0.63t-4.61,-0.31q-0.85,-5.09 -0.85,-11.24l0.11,-11.87q0,-16.33 1.06,-50.67q1.48,-0.11 4.08,-0.11q2.59,0 3.44,0.11t1.65,0.69q0.79,0.58 0.79,1.75l-0.11,4.66l0,5.41q0,16.43 0.11,18.12l39.33,-0.21l5.4,0.21q0.85,0 1.01,-0.26q0.16,-0.27 0.16,-1.33l0,-24.16q0.1,-0.64 0.1,-1.7t0.06,-1.48q0.05,-0.43 0.37,-0.96q0.42,-0.95 2.54,-0.95m22.9,13.36q-1.06,-0.31 -2.49,-2.17q-1.43,-1.85 -1.38,-3.5q0.05,-1.64 2.12,-3.39t5.35,-1.75q4.88,0 4.88,4.67q0,3.28 -2.07,4.87t-3.71,1.59t-2.7,-0.32m6.57,22.69l0,15.26l0.32,20.99q0,1.27 -0.32,1.59q-1.06,0.53 -4.45,0.53t-4.19,-0.48q-0.79,-0.47 -0.79,-2.91l-0.43,-19.4q0,-10.18 0.11,-12.93l0.32,-6.26q0,-2.96 0.95,-3.49t3.66,-0.53q2.7,0 4.61,0.31q0.21,4.67 0.21,7.32m30.1,25.11q2.02,-2.65 3.71,-5.99q1.7,-3.34 6.26,-13.2q4.56,-9.85 6.89,-14.31q0.32,-0.42 1.27,-0.42t2.49,0.85t1.86,1.48q0.1,0.74 -2.12,5.62q-8.27,19.5 -17.6,35.62l-0.85,1.59q-1.91,3.18 -3.18,3.18q-2.44,0 -4.66,-4.03q-10.07,-19.72 -12.46,-24.97q-2.38,-5.24 -3.76,-7.68q-3.29,-6.04 -3.29,-8.27q0,-1.06 2.65,-2.22q2.65,-1.17 3.66,-1.17l1.54,0q0.53,0 1.54,1.43q1,1.43 2.12,3.87q1.11,2.44 2.12,4.29q1,1.86 5.08,10.97q4.08,9.12 6.73,13.36m63.6,-13.04l-24.27,0.11q-3.92,0 -4.56,0.63q-0.53,0.75 -0.53,2.44q0,8.27 4.72,12.67t10.76,4.4t9.43,-1.59q0.11,0 2.12,-1.38q2.02,-1.38 2.81,-1.38q0.8,0 1.22,0.64q0.42,0.63 0.42,1.27q0,4.03 -5.93,6.84q-5.94,2.81 -13.83,2.81q-7.9,0 -15.06,-6.36q-7.15,-6.36 -7.15,-17.18q0,-10.81 6.73,-17.8q6.73,-7 18.07,-7q8.27,0 13.36,4.88q5.4,5.08 5.4,12.29q0,3.71 -3.71,3.71m-27.56,-5.19q20.14,0 23.32,-0.21q-0.31,-4.24 -3.23,-7q-2.91,-2.76 -7.37,-2.76q-4.45,0 -8.32,3.13t-4.4,6.84"/>
    <path id="svg_5" d="m133.34466,24.64618l-30.872,-17.834a1.48,1.48 0 0 0 -1.48,0l-30.888,17.834a1.48,1.48 0 0 0 -0.74,1.288l0,35.668a1.48,1.48 0 0 0 0.74,1.272l30.888,17.834a1.48,1.48 0 0 0 1.48,0l30.872,-17.834a1.48,1.48 0 0 0 0.74,-1.287l0,-35.67a1.48,1.48 0 0 0 -0.74,-1.272m-2.22,36.097l-29.392,16.96l-29.408,-16.96l0,-33.95l29.408,-16.99l29.392,16.99l0,33.95zm-65.12,0.844l0,-35.668a1.48,1.48 0 0 0 -0.74,-1.273l-30.902,-17.834a1.48,1.48 0 0 0 -1.48,0l-30.858,17.834a1.48,1.48 0 0 0 -0.74,1.288l0,35.668a1.48,1.48 0 0 0 0.74,1.272l30.858,17.834a1.48,1.48 0 0 0 1.48,0l30.888,-17.834a1.48,1.48 0 0 0 0.74,-1.287m-2.96,-8.26l-36.143,20.5l-5.565,-3.226l41.72,-23.532l-0.012,6.258zm0,-7.547l-42.833,24.185l-5.476,-3.182l48.308,-27.41l0.001,6.407zm-49.433,20.366l-5.58,-3.241l55.025,-31.376l0,6.542l-49.445,28.075zm-9.354,-25.308l0,-6.497l36.275,-20.572l5.58,3.226l-41.855,23.843zm42.964,-23.191l5.758,3.315l-48.722,27.35l0,-6.216l42.964,-24.449zm-42.965,31.938l49.832,-27.972l5.372,3.108l-55.204,31.228l0,-6.364zm29.378,-39.782l5.772,3.33l-35.15,19.935l0,-6.275l29.378,-16.99zm-29.378,47.434l56.314,-31.88l2.472,1.436l0,3.448l-56.122,32.042l-2.664,-1.54l0,-3.506zm29.378,20.483l-5.624,-3.256l35.032,-19.862l0,6.142l-29.408,16.976zm65.564,5.328l-30.872,-17.834a1.48,1.48 0 0 0 -1.48,0l-30.873,17.819a1.48,1.48 0 0 0 -0.74,1.273l0,35.668a1.48,1.48 0 0 0 0.74,1.287l30.888,17.82a1.48,1.48 0 0 0 1.48,0l30.858,-17.82a1.48,1.48 0 0 0 0.74,-1.272l0,-35.668a1.48,1.48 0 0 0 -0.74,-1.273m-2.22,36.082l-29.393,16.976l-29.393,-16.961l0,-33.966l29.408,-16.976l29.378,16.976l0,33.951zm-62.13,-39.693" fill="#322902"/>
    <path id="svg_6" d="m39.68966,119.90018l30.872,17.834a1.48,1.48 0 0 0 1.48,0l30.888,-17.834a1.48,1.48 0 0 0 0.74,-1.288l0,-35.668a1.48,1.48 0 0 0 -0.74,-1.272l-30.888,-17.834a1.48,1.48 0 0 0 -1.48,0l-30.872,17.834a1.48,1.48 0 0 0 -0.74,1.287l0,35.668a1.48,1.48 0 0 0 0.74,1.273m2.22,-36.097l29.392,-16.961l29.408,16.96l0,33.952l-29.408,16.99l-29.392,-16.99l0,-33.951zm65.12,-0.844l0,35.668a1.48,1.48 0 0 0 0.74,1.273l30.902,17.834a1.48,1.48 0 0 0 1.48,0l30.858,-17.834a1.48,1.48 0 0 0 0.74,-1.288l0,-35.668a1.48,1.48 0 0 0 -0.74,-1.272l-30.858,-17.834a1.48,1.48 0 0 0 -1.48,0l-30.889,17.834a1.48,1.48 0 0 0 -0.74,1.287m2.96,8.259l36.142,-20.498l5.565,3.226l-41.721,23.532l0.014,-6.26zm0,7.548l42.832,-24.184l5.476,3.182l-48.308,27.41l0,-6.408zm49.432,-20.365l5.58,3.24l-55.026,31.377l0,-6.542l49.446,-28.075zm9.354,25.308l0,6.497l-36.275,20.572l-5.58,-3.226l41.855,-23.843zm-42.964,23.19l-5.758,-3.314l48.722,-27.35l0,6.216l-42.964,24.448zm42.964,-31.937l-49.832,27.972l-5.372,-3.108l55.204,-31.228l0,6.364zm-29.378,39.782l-5.772,-3.33l35.15,-19.935l0,6.275l-29.378,16.99zm29.378,-47.434l-56.314,31.88l-2.472,-1.436l0,-3.448l56.122,-32.042l2.664,1.539l0,3.507zm-29.378,-20.483l5.624,3.256l-35.032,19.862l0,-6.142l29.408,-16.976zm-65.564,-5.328l30.873,17.834a1.48,1.48 0 0 0 1.48,0l30.873,-17.82a1.48,1.48 0 0 0 0.74,-1.272l0,-35.668a1.48,1.48 0 0 0 -0.74,-1.287l-30.888,-17.82a1.48,1.48 0 0 0 -1.48,0l-30.858,17.82a1.48,1.48 0 0 0 -0.74,1.272l0,35.668a1.48,1.48 0 0 0 0.74,1.273m2.22,-36.082l29.393,-16.976l29.393,16.96l0,33.967l-29.408,16.976l-29.377,-16.976l-0.001,-33.951zm62.13,39.693" fill="#f9cc0b"/>
    <rect id="svg_7" fill="none" y="95.83819" x="285.47666" height="33.9" width="291.821"/>
    <path id="svg_8" d="m309.10766,112.40818l-5.22,-0.03q-3.21,5.82 -3.6,6.45t-0.75,1.41q-0.84,1.83 -1.38,1.83q-1.29,0 -1.83,-0.6q-0.03,-0.06 -0.03,-0.18t0.19,-0.47q0.2,-0.34 0.63,-0.94q0.44,-0.6 0.59,-0.84q3.6,-6.39 6.52,-11.36q2.93,-4.96 3.33,-5.73q0.41,-0.76 0.71,-1.15q0.54,-0.33 1.24,-0.33q0.71,0 0.92,0.06t0.36,0.22q0.15,0.17 0.22,0.29q0.08,0.12 0.23,0.45l0.48,1.05q0.33,0.72 2.13,4.15q1.8,3.44 2.4,4.79t1.17,2.67q1.2,2.73 2.17,4.45q0.98,1.73 0.98,2.27q0,0.33 -0.92,0.76q-0.91,0.44 -1.27,0.44q-0.63,0 -1.17,-1.62l-0.57,-1.14q-0.57,-1.23 -1.53,-3.23q-0.96,-1.99 -1.83,-3.76q-0.69,0.03 -1.41,0.03q-0.69,0.06 -2.76,0.06m-4.08,-2.07l3.27,-0.03l4.02,0q-0.3,-0.6 -0.71,-1.5q-0.4,-0.9 -0.48,-1.04q-0.07,-0.13 -0.22,-0.46t-0.3,-0.63t-0.35,-0.72q-0.19,-0.42 -0.37,-0.77q-0.18,-0.34 -0.36,-0.64q-0.39,-0.69 -0.54,-0.69t-0.39,0.31q-0.24,0.32 -0.56,0.83q-0.31,0.51 -0.58,0.99q-0.81,1.5 -0.95,1.71q-0.13,0.21 -0.33,0.57q-0.19,0.36 -0.54,0.96q-0.34,0.6 -0.61,1.11m27.12,9.3q0.51,0 0.51,0.72q0,1.71 -4.44,1.71q-1.89,0 -3.36,-0.6t-2.28,-1.56q-1.68,-1.98 -1.68,-4.41q0,-3.12 2.34,-5.06q2.34,-1.93 5.82,-1.93t3.48,0.99q0,0.69 -0.24,0.78t-0.36,0.09l-0.54,0q-3.57,0 -5.55,1.03q-1.98,1.04 -1.98,3.56t1.51,3.82q1.52,1.31 4.25,1.31q0.63,0 1.44,-0.23q0.81,-0.22 1.08,-0.22m10.57,2.1q-0.9,0 -0.84,-0.99q0,-0.33 -0.09,-0.33q-0.24,0.09 -0.96,0.51q-3.57,2.19 -6.27,0.27q-1.23,-0.87 -1.23,-2.4q0,-2.31 2.14,-3.36q2.15,-1.05 5.33,-1.05q0.57,0 0.84,0.03q0,-0.51 0.03,-0.72q0,-1.71 -0.95,-2.57q-0.94,-0.85 -2.62,-0.85q-0.81,0 -1.74,0.24t-1.2,0.24t-0.44,-0.33q-0.16,-0.33 -0.16,-0.87t1.33,-0.86q1.34,-0.31 2.57,-0.31q2.91,0 4.42,1.53q1.52,1.53 1.52,4.47l0,6.18q0,0.81 -0.3,0.99t-1.38,0.18m-1.11,-3.15q0.06,-0.84 0.06,-1.8t-0.03,-1.08q-4.14,0.39 -5.04,1.5q-0.48,0.57 -0.48,1.32q0,1.59 2.37,1.59q1.2,0 2.14,-0.56q0.95,-0.55 0.98,-0.97m18.14,-17.31l0,0.78l0.03,11.97l0,6.09q0,0.27 -0.02,0.36l-0.03,0.3q-0.01,0.21 -0.04,0.3q-0.12,0.36 -0.2,0.42q-0.07,0.06 -0.16,0.12q-0.21,0.12 -0.99,0.12t-1.05,-0.09q-0.06,-0.15 -0.09,-0.54t-0.06,-0.51q-0.63,0.45 -2.03,0.96q-1.39,0.51 -2.5,0.51q-2.79,0 -4.52,-1.89q-1.72,-1.89 -1.72,-4.68q0,-3.87 3.36,-5.97q1.65,-1.14 4.2,-1.14q0.69,0 3.06,0.63l0.03,-1.32l0,-1.59q0,-3.36 0.04,-3.93q0.05,-0.57 0.05,-1.11t0.03,-0.71q0.03,-0.16 0.15,-0.4q0.21,-0.36 0.96,-0.36t1,0.12q0.26,0.12 0.38,0.45q0.12,0.45 0.12,1.11m-10.41,13.56q0,2.43 1.26,3.79q1.26,1.37 3.42,1.37q1.08,0 1.8,-0.21q1.23,-0.39 1.23,-1.08l0,-5.55q0,-1.98 -0.18,-2.19q-0.18,-0.3 -1.1,-0.47q-0.91,-0.16 -1.81,-0.16q-2.04,0 -3.3,1.26t-1.32,3.24m24.03,-0.54l-6.87,0.03q-1.11,0 -1.29,0.18q-0.15,0.21 -0.15,0.69q0,2.34 1.33,3.58q1.34,1.25 3.05,1.25t2.67,-0.45q0.03,0 0.6,-0.39t0.79,-0.39q0.23,0 0.35,0.18t0.12,0.36q0,1.14 -1.68,1.93q-1.68,0.8 -3.92,0.8q-2.23,0 -4.26,-1.8q-2.02,-1.8 -2.02,-4.86t1.9,-5.04q1.91,-1.98 5.12,-1.98q2.34,0 3.78,1.38q1.53,1.44 1.53,3.48q0,1.05 -1.05,1.05m-7.8,-1.47q5.7,0 6.6,-0.06q-0.09,-1.2 -0.92,-1.98q-0.82,-0.78 -2.08,-0.78t-2.36,0.88q-1.09,0.89 -1.24,1.94m12.49,-4.13l1.29,0.03q0.03,0.03 0.27,1.02q0.24,-0.09 1.26,-0.51q2.07,-0.81 3.24,-0.81q1.95,0 3.12,1.59l0.3,-0.21q0.33,-0.21 0.42,-0.27l0.36,-0.21q0.3,-0.18 0.45,-0.24t0.46,-0.21q0.32,-0.15 0.54,-0.21q0.23,-0.06 0.53,-0.15q0.57,-0.12 1.29,-0.12q3.15,0 4.02,3q0.24,0.66 0.3,3.18l0,5.58q0,1.02 -0.35,1.3q-0.34,0.29 -1.29,0.29q-0.94,0 -1.14,-0.14q-0.19,-0.13 -0.19,-0.67l0.09,-1.8l0,-4.38q0,-0.66 -0.02,-1.14q-0.01,-0.48 -0.15,-1.2q-0.13,-0.72 -0.4,-1.02q-0.75,-0.84 -2.22,-0.84q-2.79,0 -2.79,1.83l0.09,2.73l0,4.08q0,1.32 -0.24,1.74q-0.12,0.21 -0.54,0.21q-1.68,0 -1.95,-0.42q-0.21,-0.3 -0.17,-0.93q0.05,-0.63 0.05,-0.72l0.15,-5.31q0,-1.71 -0.57,-2.34t-1.77,-0.63q-2.88,0 -2.88,1.11l0.06,2.46l-0.06,5.19q0,0.18 0.01,0.55q0.02,0.38 -0.01,0.5l-0.03,0.36q-0.03,0.24 -0.09,0.33q-0.36,0.33 -0.6,0.36q-0.66,0.09 -1.04,0.09q-0.37,0 -0.51,-0.03q-0.13,-0.03 -0.22,-0.11q-0.09,-0.07 -0.15,-0.15q-0.06,-0.07 -0.11,-0.24q-0.04,-0.16 -0.06,-0.3q-0.01,-0.13 -0.01,-0.4l0,-1.53l0.12,-6.24l0.06,-2.49l0.06,-0.6q0,-0.36 0.16,-0.59q0.17,-0.22 0.26,-0.25q0.36,-0.12 0.6,-0.12m21.86,-4.24q-0.3,-0.09 -0.71,-0.62q-0.4,-0.52 -0.39,-0.99q0.02,-0.46 0.6,-0.96q0.59,-0.49 1.52,-0.49q1.38,0 1.38,1.32q0,0.93 -0.59,1.38q-0.58,0.45 -1.05,0.45q-0.46,0 -0.76,-0.09m1.86,6.42l0,4.32l0.09,5.94q0,0.36 -0.09,0.45q-0.3,0.15 -1.26,0.15t-1.19,-0.14q-0.22,-0.13 -0.22,-0.82l-0.12,-5.49q0,-2.88 0.03,-3.66l0.09,-1.77q0,-0.84 0.27,-0.99t1.03,-0.15q0.77,0 1.31,0.09q0.06,1.32 0.06,2.07m13.53,8.76q0.51,0 0.51,0.72q0,1.71 -4.44,1.71q-1.89,0 -3.36,-0.6t-2.28,-1.56q-1.68,-1.98 -1.68,-4.41q0,-3.12 2.34,-5.06q2.34,-1.93 5.82,-1.93t3.48,0.99q0,0.69 -0.24,0.78t-0.36,0.09l-0.54,0q-3.57,0 -5.55,1.03q-1.98,1.04 -1.98,3.56t1.51,3.82q1.52,1.31 4.25,1.31q0.63,0 1.44,-0.23q0.81,-0.22 1.08,-0.22m19.53,-7.23l-5.22,-0.03q-3.21,5.82 -3.6,6.45t-0.75,1.41q-0.84,1.83 -1.38,1.83q-1.29,0 -1.83,-0.6q-0.03,-0.06 -0.03,-0.18t0.19,-0.47q0.2,-0.34 0.63,-0.94q0.44,-0.6 0.59,-0.84q3.6,-6.39 6.52,-11.36q2.93,-4.96 3.33,-5.73q0.41,-0.76 0.71,-1.15q0.54,-0.33 1.24,-0.33q0.71,0 0.92,0.06t0.36,0.22q0.15,0.17 0.22,0.29q0.08,0.12 0.23,0.45l0.48,1.05q0.33,0.72 2.13,4.15q1.8,3.44 2.4,4.79t1.17,2.67q1.2,2.73 2.17,4.45q0.98,1.73 0.98,2.27q0,0.33 -0.92,0.76q-0.91,0.44 -1.27,0.44q-0.63,0 -1.17,-1.62l-0.57,-1.14q-0.57,-1.23 -1.53,-3.23q-0.96,-1.99 -1.83,-3.76q-0.69,0.03 -1.41,0.03q-0.69,0.06 -2.76,0.06m-4.08,-2.07l3.27,-0.03l4.02,0q-0.3,-0.6 -0.71,-1.5q-0.4,-0.9 -0.48,-1.04q-0.07,-0.13 -0.22,-0.46t-0.3,-0.63t-0.35,-0.72q-0.19,-0.42 -0.37,-0.77q-0.18,-0.34 -0.36,-0.64q-0.39,-0.69 -0.54,-0.69t-0.39,0.31q-0.24,0.32 -0.56,0.83q-0.31,0.51 -0.58,0.99q-0.81,1.5 -0.95,1.71q-0.13,0.21 -0.33,0.57q-0.19,0.36 -0.54,0.96q-0.34,0.6 -0.61,1.11m27.12,9.3q0.51,0 0.51,0.72q0,1.71 -4.44,1.71q-1.89,0 -3.36,-0.6t-2.28,-1.56q-1.68,-1.98 -1.68,-4.41q0,-3.12 2.34,-5.06q2.34,-1.93 5.82,-1.93t3.48,0.99q0,0.69 -0.24,0.78t-0.36,0.09l-0.54,0q-3.57,0 -5.55,1.03q-1.98,1.04 -1.98,3.56t1.51,3.82q1.52,1.31 4.25,1.31q0.63,0 1.44,-0.23q0.81,-0.22 1.08,-0.22m6.03,-6.6l-0.06,4.32q0,1.23 0.42,1.87q0.42,0.65 1.41,0.65t1.68,-0.18q1.29,-0.36 1.29,0.36q0,2.01 -3.72,2.01q-2.1,0 -3.27,-1.89q-0.57,-1.2 -0.57,-2.85l0.06,-3.48l0.06,-2.52q0,-0.42 -0.12,-0.53q-0.12,-0.1 -0.45,-0.1l-1.17,0.09q-0.75,0 -0.75,-0.48q0,-0.84 0.19,-1.19q0.2,-0.34 0.74,-0.34l1.17,0.09q0.42,0 0.42,-1.02l0,-1.86q0,-0.78 0.03,-0.9q0.36,-0.18 2.37,-0.18q0.54,0 0.54,0.57l-0.09,3.3q0.36,0.03 1.17,0.03l2.4,-0.18q0.48,0 0.48,0.57q0,1.65 -1.62,1.65l-1.95,-0.12q-0.48,0 -0.6,0.06q-0.06,0.54 -0.06,2.25m5.28,7.2l1.08,0.12q1.2,0 2.16,-0.53q0.96,-0.52 0.96,-1.51q0,-0.36 -0.14,-0.77q-0.13,-0.4 -0.96,-1.17q-0.82,-0.76 -1.51,-1.75t-0.69,-2.22q0,-1.2 1.08,-2.52q0.51,-0.63 1.53,-1.07q1.02,-0.43 1.99,-0.43q0.98,0 1.2,0.22q0.23,0.23 0.17,0.65l-0.24,0.87q-0.45,-0.12 -1.04,-0.12q-0.58,0 -1.21,0.46q-0.63,0.47 -0.63,1.19t0.54,1.45q0.54,0.74 1.2,1.28t1.2,1.47t0.54,2.01q0,2.07 -1.83,3.13q-1.83,1.07 -4.35,1.07q-0.66,0 -0.96,-0.26q-0.3,-0.25 -0.3,-0.81q0,-0.55 0.21,-0.76m24.84,-17.46q-0.99,-0.33 -2.39,-0.33q-1.39,0 -2.5,0.7q-1.11,0.71 -1.11,2.01q0,1.31 0.78,2.27t1.89,1.75q1.11,0.8 2.2,1.68q1.1,0.89 1.88,2.21t0.78,2.97t-1.38,3.33q-2.25,2.7 -7.44,2.7q-0.72,0 -1.28,-0.08q-0.55,-0.07 -0.85,-0.1t-0.63,-0.09q-0.72,-0.12 -0.72,-0.36q0,-1.59 0.57,-1.95q1.23,0.39 2.52,0.39q6.24,0 6.24,-3.57q0,-1.86 -2.64,-3.81q-1.11,-0.81 -2.21,-1.68q-1.09,-0.87 -1.87,-2.18q-0.78,-1.3 -0.78,-2.86q0,-2.37 2.05,-3.9q2.06,-1.53 4.82,-1.53q0.6,0 1.6,0.13q1.01,0.14 1.08,0.35q0.08,0.21 0.08,0.48t-0.18,0.79q-0.18,0.53 -0.51,0.68m10.41,13.89q0.48,-0.48 0.81,-1.14l0.42,-0.84q0.12,-0.18 1.14,-2.16q2.13,-4.14 2.61,-4.14q0.3,0 0.82,0.27q0.53,0.27 0.59,0.48q0,0.15 -3.08,6.01q-3.07,5.87 -3.31,6.35q-3.51,7.29 -4.11,7.29q-0.48,0 -1.05,-0.26q-0.57,-0.25 -0.63,-0.46q0,-0.18 0.45,-1.17q0.33,-0.6 0.93,-1.65q1.41,-2.46 1.69,-3.11q0.29,-0.64 0.6,-1.17q0.32,-0.52 0.56,-0.97t0.24,-0.6t-0.74,-1.11q-0.73,-0.96 -1.45,-2q-0.72,-1.03 -1.59,-2.32t-1.11,-1.65l-0.69,-1.05q-0.99,-1.47 -0.99,-1.82q0,-0.34 0.69,-0.7t1.02,-0.36t0.9,0.58q0.57,0.59 1.32,1.65q0.75,1.07 1.38,2.03t1.44,2.25t1.14,1.77m6.63,3.57l1.08,0.12q1.2,0 2.16,-0.53q0.96,-0.52 0.96,-1.51q0,-0.36 -0.14,-0.77q-0.13,-0.4 -0.96,-1.17q-0.82,-0.76 -1.51,-1.75t-0.69,-2.22q0,-1.2 1.08,-2.52q0.51,-0.63 1.53,-1.07q1.02,-0.43 1.99,-0.43q0.98,0 1.2,0.22q0.23,0.23 0.17,0.65l-0.24,0.87q-0.45,-0.12 -1.04,-0.12q-0.58,0 -1.21,0.46q-0.63,0.47 -0.63,1.19t0.54,1.45q0.54,0.74 1.2,1.28t1.2,1.47t0.54,2.01q0,2.07 -1.83,3.13q-1.83,1.07 -4.35,1.07q-0.66,0 -0.96,-0.26q-0.3,-0.25 -0.3,-0.81q0,-0.55 0.21,-0.76m13.41,-7.2l-0.06,4.32q0,1.23 0.42,1.87q0.42,0.65 1.41,0.65t1.68,-0.18q1.29,-0.36 1.29,0.36q0,2.01 -3.72,2.01q-2.1,0 -3.27,-1.89q-0.57,-1.2 -0.57,-2.85l0.06,-3.48l0.06,-2.52q0,-0.42 -0.12,-0.53q-0.12,-0.1 -0.45,-0.1l-1.17,0.09q-0.75,0 -0.75,-0.48q0,-0.84 0.19,-1.19q0.2,-0.34 0.74,-0.34l1.17,0.09q0.42,0 0.42,-1.02l0,-1.86q0,-0.78 0.03,-0.9q0.36,-0.18 2.37,-0.18q0.54,0 0.54,0.57l-0.09,3.3q0.36,0.03 1.17,0.03l2.4,-0.18q0.48,0 0.48,0.57q0,1.65 -1.62,1.65l-1.95,-0.12q-0.48,0 -0.6,0.06q-0.06,0.54 -0.06,2.25m16.68,1.26l-6.87,0.03q-1.11,0 -1.29,0.18q-0.15,0.21 -0.15,0.69q0,2.34 1.33,3.58q1.34,1.25 3.05,1.25t2.67,-0.45q0.03,0 0.6,-0.39t0.79,-0.39q0.23,0 0.35,0.18t0.12,0.36q0,1.14 -1.68,1.93q-1.68,0.8 -3.92,0.8q-2.23,0 -4.26,-1.8q-2.02,-1.8 -2.02,-4.86t1.9,-5.04q1.91,-1.98 5.12,-1.98q2.34,0 3.78,1.38q1.53,1.44 1.53,3.48q0,1.05 -1.05,1.05m-7.8,-1.47q5.7,0 6.6,-0.06q-0.09,-1.2 -0.92,-1.98q-0.82,-0.78 -2.08,-0.78t-2.36,0.88q-1.09,0.89 -1.24,1.94m12.49,-4.13l1.29,0.03q0.03,0.03 0.27,1.02q0.24,-0.09 1.26,-0.51q2.07,-0.81 3.24,-0.81q1.95,0 3.12,1.59l0.3,-0.21q0.33,-0.21 0.42,-0.27l0.36,-0.21q0.3,-0.18 0.45,-0.24t0.46,-0.21q0.32,-0.15 0.54,-0.21q0.23,-0.06 0.53,-0.15q0.57,-0.12 1.29,-0.12q3.15,0 4.02,3q0.24,0.66 0.3,3.18l0,5.58q0,1.02 -0.35,1.3q-0.34,0.29 -1.29,0.29q-0.94,0 -1.14,-0.14q-0.19,-0.13 -0.19,-0.67l0.09,-1.8l0,-4.38q0,-0.66 -0.02,-1.14q-0.01,-0.48 -0.15,-1.2q-0.13,-0.72 -0.4,-1.02q-0.75,-0.84 -2.22,-0.84q-2.79,0 -2.79,1.83l0.09,2.73l0,4.08q0,1.32 -0.24,1.74q-0.12,0.21 -0.54,0.21q-1.68,0 -1.95,-0.42q-0.21,-0.3 -0.17,-0.93q0.05,-0.63 0.05,-0.72l0.15,-5.31q0,-1.71 -0.57,-2.34t-1.77,-0.63q-2.88,0 -2.88,1.11l0.06,2.46l-0.06,5.19q0,0.18 0.01,0.55q0.02,0.38 -0.01,0.5l-0.03,0.36q-0.03,0.24 -0.09,0.33q-0.36,0.33 -0.6,0.36q-0.66,0.09 -1.04,0.09q-0.37,0 -0.51,-0.03q-0.13,-0.03 -0.22,-0.11q-0.09,-0.07 -0.15,-0.15q-0.06,-0.07 -0.11,-0.24q-0.04,-0.16 -0.06,-0.3q-0.01,-0.13 -0.01,-0.4l0,-1.53l0.12,-6.24l0.06,-2.49l0.06,-0.6q0,-0.36 0.16,-0.59q0.17,-0.22 0.26,-0.25q0.36,-0.12 0.6,-0.12"/>
   </g>
   <path id="svg_9" d="m1.11111,-1.77778l678,0l0,141l-678,0l0,-141z" stroke="transparent" fill="transparent"/>
  </g>
 </g>
</svg>