<svg xmlns="http://www.w3.org/2000/svg" xml:space="preserve" width="2000" height="141" data-id="lg_mTPmKii0Y8ZXoRzBgb" data-version="1" viewBox="0 0 2000 141"><g data-padding="20"><g transform="translate(10 2.08)scale(.9705)"><rect width="495.232" height="119.78" x="372.279" y="-385.78" fill="none" rx="0" ry="0" transform="translate(491.44 385.67)"/><path d="m911.775 26.22-13.04-.21q-10.81 0-15.05.74-.21 7.21-.21 22.26l18.12-.11h1.8q10.18 0 10.18 1.64 0 1.65-.74 3.61t-1.7 2.28q-.95.32-4.03.32l-23.42-.11q-.11 3.07-.11 4.88l-.1 8.58v5.94q0 6.99.31 7.63.64 1.27 19.72 1.27 6.57 0 9.43-.32l4.46-.84q1.59 0 1.59 1 0 1.01-.96 3.24-1.06 3.6-1.48 3.92-1.17.63-16.96.63h-19.4q-5.72 0-6.62-.79-.91-.8-.91-13.62l.32-37.84.11-8.59-.11-7.95q0-3.6.64-4.24.85-.95 6.15-.95l14.94-.22 13.99.11q4.99 0 5.52.58.53.59.53 1.12l-.43 2.54q-.1.53-.1 1.22t-.06 1.01q-.05.31-.26.63-.32.64-2.12.64m33.92 53.21q2.01-2.65 3.71-5.99 1.69-3.34 6.25-13.2 4.56-9.85 6.89-14.31.32-.42 1.27-.42.96 0 2.5.85 1.53.85 1.85 1.48.11.74-2.12 5.62-8.27 19.5-17.6 35.62l-.84 1.59q-1.91 3.18-3.18 3.18-2.44 0-4.67-4.03-10.07-19.72-12.45-24.97-2.39-5.24-3.77-7.68-3.28-6.04-3.28-8.27 0-1.06 2.65-2.22 2.65-1.17 3.66-1.17h1.53q.53 0 1.54 1.43t2.12 3.87 2.12 4.29q1.01 1.86 5.09 10.97 4.08 9.12 6.73 13.36m63.6-13.04-24.28.11q-3.92 0-4.55.63-.53.75-.53 2.44 0 8.27 4.71 12.67 4.72 4.4 10.76 4.4t9.44-1.59q.1 0 2.12-1.38 2.01-1.38 2.81-1.38.79 0 1.21.64.43.63.43 1.27 0 4.03-5.94 6.84-5.93 2.81-13.83 2.81t-15.05-6.36q-7.16-6.36-7.16-17.18 0-10.81 6.73-17.8 6.73-7 18.08-7 8.26 0 13.35 4.88 5.41 5.08 5.41 12.29 0 3.71-3.71 3.71m-27.56-5.19q20.14 0 23.32-.21-.32-4.24-3.23-7-2.92-2.76-7.37-2.76t-8.32 3.13-4.4 6.84m43.55-14.52 4.99-.11q0 .53.63 2.65.64-.21 3.61-1.27 6.99-2.44 11.6-2.44t8.11 1.43 5.41 3.6q1.91 2.18 3.07 5.78 1.7 5.83 1.7 15.48l-.53 18.12q0 2.12-.37 2.44t-2.97.32-5.99-.42q-.32-2.55-.32-8.91l.11-13.57q0-8.48-2.86-12.77-2.87-4.29-9.81-4.29t-10.55 2.01l.22 14.21q.1 9.54.1 14.84l.21 6.25q0 1.7-.84 2.17-.85.48-3.61.48l-5.51-.21-.42-22.16.42-16.11v-3.81q0-3.71 3.6-3.71m62.54 15.26-.21 15.26q0 4.35 1.49 6.63 1.48 2.28 4.98 2.28t5.93-.64q4.56-1.27 4.56 1.27 0 7.11-13.14 7.11-7.42 0-11.56-6.68-2.01-4.24-2.01-10.07l.21-12.3.21-8.9q0-1.49-.42-1.86t-1.59-.37l-4.13.32q-2.65 0-2.65-1.7 0-2.96.69-4.18.68-1.22 2.59-1.22l4.14.32q1.48 0 1.48-3.61v-6.57q0-2.76.11-3.18 1.27-.64 8.37-.64 1.91 0 1.91 2.02l-.32 11.66q1.27.1 4.13.1l8.48-.63q1.7 0 1.7 2.01 0 5.83-5.72 5.83l-6.89-.42q-1.7 0-2.12.21-.22 1.91-.22 7.95m105.79-43.67 3.5.1 3.07.22q.22 8.05.22 31.74t-.32 29.05q-.32 5.35-.32 7.26 0 3.71-.74 4.87-.74 1.17-4.4 1.17t-4.03-.58q-.37-.59-.37-2.92v-5.62l.21-21.94q0-3.5-.1-5.93l-32.55.21q-4.98 0-13.25-.21v20.14l.11 10.07q-.32 5.4-1.17 6.04-.84.63-4.5.63t-4.61-.31q-.85-5.09-.85-11.24l.11-11.87q0-16.33 1.06-50.67 1.48-.11 4.08-.11 2.59 0 3.44.11t1.65.69q.79.58.79 1.75l-.11 4.66v5.41q0 16.43.11 18.12l39.33-.21 5.4.21q.85 0 1.01-.26.16-.27.16-1.33V23.36q.1-.64.1-1.7t.06-1.48q.05-.43.37-.96.42-.95 2.54-.95m22.9 13.36q-1.06-.31-2.49-2.17-1.43-1.85-1.38-3.5.05-1.64 2.12-3.39t5.35-1.75q4.88 0 4.88 4.67 0 3.28-2.07 4.87t-3.71 1.59-2.7-.32m6.57 22.69v15.26l.32 20.99q0 1.27-.32 1.59-1.06.53-4.45.53t-4.19-.48q-.79-.47-.79-2.91l-.43-19.4q0-10.18.11-12.93l.32-6.26q0-2.96.95-3.49t3.66-.53q2.7 0 4.61.31.21 4.67.21 7.32m30.1 25.11q2.02-2.65 3.71-5.99 1.7-3.34 6.26-13.2 4.56-9.85 6.89-14.31.32-.42 1.27-.42t2.49.85 1.86 1.48q.1.74-2.12 5.62-8.27 19.5-17.6 35.62l-.85 1.59q-1.91 3.18-3.18 3.18-2.44 0-4.66-4.03-10.07-19.72-12.46-24.97-2.38-5.24-3.76-7.68-3.29-6.04-3.29-8.27 0-1.06 2.65-2.22 2.65-1.17 3.66-1.17h1.54q.53 0 1.54 1.43 1 1.43 2.12 3.87 1.11 2.44 2.12 4.29 1 1.86 5.08 10.97 4.08 9.12 6.73 13.36m63.6-13.04-24.27.11q-3.92 0-4.56.63-.53.75-.53 2.44 0 8.27 4.72 12.67t10.76 4.4 9.43-1.59q.11 0 2.12-1.38 2.02-1.38 2.81-1.38.8 0 1.22.64.42.63.42 1.27 0 4.03-5.93 6.84-5.94 2.81-13.83 2.81-7.9 0-15.06-6.36-7.15-6.36-7.15-17.18 0-10.81 6.73-17.8 6.73-7 18.07-7 8.27 0 13.36 4.88 5.4 5.08 5.4 12.29 0 3.71-3.71 3.71m-27.56-5.19q20.14 0 23.32-.21-.31-4.24-3.23-7-2.91-2.76-7.37-2.76-4.45 0-8.32 3.13t-4.4 6.84"/><path fill="#322902" d="M813.292 26.478 782.42 8.644a1.48 1.48 0 0 0-1.48 0l-30.888 17.834a1.48 1.48 0 0 0-.74 1.288v35.668a1.48 1.48 0 0 0 .74 1.272L780.94 82.54a1.48 1.48 0 0 0 1.48 0l30.872-17.834a1.48 1.48 0 0 0 .74-1.287v-35.67a1.48 1.48 0 0 0-.74-1.272m-2.22 36.097-29.392 16.96-29.408-16.96v-33.95l29.408-16.99 29.392 16.99Zm-65.12.844V27.75a1.48 1.48 0 0 0-.74-1.273L714.31 8.643a1.48 1.48 0 0 0-1.48 0l-30.858 17.834a1.48 1.48 0 0 0-.74 1.288v35.668a1.48 1.48 0 0 0 .74 1.272l30.858 17.834a1.48 1.48 0 0 0 1.48 0l30.888-17.834a1.48 1.48 0 0 0 .74-1.287m-2.96-8.26-36.143 20.5-5.565-3.226L742.99 48.9Zm0-7.547-42.833 24.185-5.476-3.182 48.308-27.41Zm-49.433 20.366-5.58-3.241L742.99 33.36v6.542Zm-9.354-25.308v-6.497L720.466 15.6l5.58 3.226Zm42.964-23.191 5.758 3.315-48.722 27.35v-6.216ZM684.19 51.416l49.832-27.972 5.372 3.108L684.19 57.78Zm29.378-39.782 5.772 3.33-35.15 19.935v-6.275ZM684.19 59.068l56.314-31.88 2.472 1.436v3.448l-56.122 32.042-2.664-1.54Zm29.378 20.483-5.624-3.256 35.032-19.862v6.142Zm65.564 5.328L748.26 67.045a1.48 1.48 0 0 0-1.48 0l-30.873 17.819a1.48 1.48 0 0 0-.74 1.273v35.668a1.48 1.48 0 0 0 .74 1.287l30.888 17.82a1.48 1.48 0 0 0 1.48 0l30.858-17.82a1.48 1.48 0 0 0 .74-1.272V86.152a1.48 1.48 0 0 0-.74-1.273m-2.22 36.082-29.393 16.976-29.393-16.961V87.01l29.408-16.976 29.378 16.976Zm-62.13-39.693"/><path fill="#f9cc0b" d="m719.637 121.732 30.872 17.834a1.48 1.48 0 0 0 1.48 0l30.888-17.834a1.48 1.48 0 0 0 .74-1.288V84.776a1.48 1.48 0 0 0-.74-1.272L751.989 65.67a1.48 1.48 0 0 0-1.48 0l-30.872 17.834a1.48 1.48 0 0 0-.74 1.287v35.668a1.48 1.48 0 0 0 .74 1.273m2.22-36.097 29.392-16.961 29.408 16.96v33.952l-29.408 16.99-29.392-16.99Zm65.12-.844v35.668a1.48 1.48 0 0 0 .74 1.273l30.902 17.834a1.48 1.48 0 0 0 1.48 0l30.858-17.834a1.48 1.48 0 0 0 .74-1.288V84.776a1.48 1.48 0 0 0-.74-1.272L820.099 65.67a1.48 1.48 0 0 0-1.48 0L787.73 83.504a1.48 1.48 0 0 0-.74 1.287m2.96 8.259 36.142-20.498 5.565 3.226-41.721 23.532Zm0 7.548 42.832-24.184 5.476 3.182-48.308 27.41Zm49.432-20.365 5.58 3.24-55.026 31.377v-6.542Zm9.354 25.308v6.497l-36.275 20.572-5.58-3.226Zm-42.964 23.19-5.758-3.314 48.722-27.35v6.216Zm42.964-31.937-49.832 27.972-5.372-3.108 55.204-31.228Zm-29.378 39.782-5.772-3.33 35.15-19.935v6.275Zm29.378-47.434-56.314 31.88-2.472-1.436v-3.448l56.122-32.042 2.664 1.539Zm-29.378-20.483 5.624 3.256-35.032 19.862v-6.142Zm-65.564-5.328 30.873 17.834a1.48 1.48 0 0 0 1.48 0l30.873-17.82a1.48 1.48 0 0 0 .74-1.272V26.405a1.48 1.48 0 0 0-.74-1.287l-30.888-17.82a1.48 1.48 0 0 0-1.48 0l-30.858 17.82a1.48 1.48 0 0 0-.74 1.272v35.668a1.48 1.48 0 0 0 .74 1.273m2.22-36.082 29.393-16.976 29.393 16.96V61.2l-29.408 16.976L756.015 61.2Zm62.13 39.693"/><rect width="291.821" height="33.9" x="473.984" y="-342.84" fill="none" rx="0" ry="0" transform="translate(491.44 440.51)"/><path d="m989.055 114.24-5.22-.03q-3.21 5.82-3.6 6.45t-.75 1.41q-.84 1.83-1.38 1.83-1.29 0-1.83-.6-.03-.06-.03-.18t.19-.47q.2-.34.63-.94.44-.6.59-.84 3.6-6.39 6.52-11.36 2.93-4.96 3.33-5.73.41-.76.71-1.15.54-.33 1.24-.33.71 0 .92.06t.36.22q.15.17.22.29.08.12.23.45l.48 1.05q.33.72 2.13 4.15 1.8 3.44 2.4 4.79t1.17 2.67q1.2 2.73 2.17 4.45.98 1.73.98 2.27 0 .33-.92.76-.91.44-1.27.44-.63 0-1.17-1.62l-.57-1.14q-.57-1.23-1.53-3.23-.96-1.99-1.83-3.76-.69.03-1.41.03-.69.06-2.76.06m-4.08-2.07 3.27-.03h4.02q-.3-.6-.71-1.5-.4-.9-.48-1.04-.07-.13-.22-.46t-.3-.63-.35-.72q-.19-.42-.37-.77-.18-.34-.36-.64-.39-.69-.54-.69t-.39.31q-.24.32-.56.83-.31.51-.58.99-.81 1.5-.95 1.71-.13.21-.33.57-.19.36-.54.96-.34.6-.61 1.11m27.12 9.3q.51 0 .51.72 0 1.71-4.44 1.71-1.89 0-3.36-.6t-2.28-1.56q-1.68-1.98-1.68-4.41 0-3.12 2.34-5.06 2.34-1.93 5.82-1.93t3.48.99q0 .69-.24.78t-.36.09h-.54q-3.57 0-5.55 1.03-1.98 1.04-1.98 3.56t1.51 3.82q1.52 1.31 4.25 1.31.63 0 1.44-.23.81-.22 1.08-.22m10.57 2.1q-.9 0-.84-.99 0-.33-.09-.33-.24.09-.96.51-3.57 2.19-6.27.27-1.23-.87-1.23-2.4 0-2.31 2.14-3.36 2.15-1.05 5.33-1.05.57 0 .84.03 0-.51.03-.72 0-1.71-.95-2.57-.94-.85-2.62-.85-.81 0-1.74.24t-1.2.24-.44-.33q-.16-.33-.16-.87t1.33-.86q1.34-.31 2.57-.31 2.91 0 4.42 1.53 1.52 1.53 1.52 4.47v6.18q0 .81-.3.99t-1.38.18m-1.11-3.15q.06-.84.06-1.8t-.03-1.08q-4.14.39-5.04 1.5-.48.57-.48 1.32 0 1.59 2.37 1.59 1.2 0 2.14-.56.95-.55.98-.97m18.14-17.31v.78l.03 11.97v6.09q0 .27-.02.36l-.03.3q-.01.21-.04.3-.12.36-.2.42-.07.06-.16.12-.21.12-.99.12t-1.05-.09q-.06-.15-.09-.54t-.06-.51q-.63.45-2.03.96-1.39.51-2.5.51-2.79 0-4.52-1.89-1.72-1.89-1.72-4.68 0-3.87 3.36-5.97 1.65-1.14 4.2-1.14.69 0 3.06.63l.03-1.32v-1.59q0-3.36.04-3.93.05-.57.05-1.11t.03-.71q.03-.16.15-.4.21-.36.96-.36t1 .12q.26.12.38.45.12.45.12 1.11m-10.41 13.56q0 2.43 1.26 3.79 1.26 1.37 3.42 1.37 1.08 0 1.8-.21 1.23-.39 1.23-1.08v-5.55q0-1.98-.18-2.19-.18-.3-1.1-.47-.91-.16-1.81-.16-2.04 0-3.3 1.26t-1.32 3.24m24.03-.54-6.87.03q-1.11 0-1.29.18-.15.21-.15.69 0 2.34 1.33 3.58 1.34 1.25 3.05 1.25t2.67-.45q.03 0 .6-.39t.79-.39q.23 0 .35.18t.12.36q0 1.14-1.68 1.93-1.68.8-3.92.8-2.23 0-4.26-1.8-2.02-1.8-2.02-4.86t1.9-5.04q1.91-1.98 5.12-1.98 2.34 0 3.78 1.38 1.53 1.44 1.53 3.48 0 1.05-1.05 1.05m-7.8-1.47q5.7 0 6.6-.06-.09-1.2-.92-1.98-.82-.78-2.08-.78t-2.36.88q-1.09.89-1.24 1.94m12.49-4.13 1.29.03q.03.03.27 1.02.24-.09 1.26-.51 2.07-.81 3.24-.81 1.95 0 3.12 1.59l.3-.21q.33-.21.42-.27l.36-.21q.3-.18.45-.24t.46-.21q.32-.15.54-.21.23-.06.53-.15.57-.12 1.29-.12 3.15 0 4.02 3 .24.66.3 3.18v5.58q0 1.02-.35 1.3-.34.29-1.29.29-.94 0-1.14-.14-.19-.13-.19-.67l.09-1.8v-4.38q0-.66-.02-1.14-.01-.48-.15-1.2-.13-.72-.4-1.02-.75-.84-2.22-.84-2.79 0-2.79 1.83l.09 2.73v4.08q0 1.32-.24 1.74-.12.21-.54.21-1.68 0-1.95-.42-.21-.3-.17-.93.05-.63.05-.72l.15-5.31q0-1.71-.57-2.34t-1.77-.63q-2.88 0-2.88 1.11l.06 2.46-.06 5.19q0 .18.01.55.02.38-.01.5l-.03.36q-.03.24-.09.33-.36.33-.6.36-.66.09-1.04.09-.37 0-.51-.03-.13-.03-.22-.11-.09-.07-.15-.15-.06-.07-.11-.24-.04-.16-.06-.3-.01-.13-.01-.4v-1.53l.12-6.24.06-2.49.06-.6q0-.36.16-.59.17-.22.26-.25.36-.12.6-.12m21.86-4.24q-.3-.09-.71-.62-.4-.52-.39-.99.02-.46.6-.96.59-.49 1.52-.49 1.38 0 1.38 1.32 0 .93-.59 1.38-.58.45-1.05.45-.46 0-.76-.09m1.86 6.42v4.32l.09 5.94q0 .36-.09.45-.3.15-1.26.15t-1.19-.14q-.22-.13-.22-.82l-.12-5.49q0-2.88.03-3.66l.09-1.77q0-.84.27-.99t1.03-.15q.77 0 1.31.09.06 1.32.06 2.07m13.53 8.76q.51 0 .51.72 0 1.71-4.44 1.71-1.89 0-3.36-.6t-2.28-1.56q-1.68-1.98-1.68-4.41 0-3.12 2.34-5.06 2.34-1.93 5.82-1.93t3.48.99q0 .69-.24.78t-.36.09h-.54q-3.57 0-5.55 1.03-1.98 1.04-1.98 3.56t1.51 3.82q1.52 1.31 4.25 1.31.63 0 1.44-.23.81-.22 1.08-.22m19.53-7.23-5.22-.03q-3.21 5.82-3.6 6.45t-.75 1.41q-.84 1.83-1.38 1.83-1.29 0-1.83-.6-.03-.06-.03-.18t.19-.47q.2-.34.63-.94.44-.6.59-.84 3.6-6.39 6.52-11.36 2.93-4.96 3.33-5.73.41-.76.71-1.15.54-.33 1.24-.33.71 0 .92.06t.36.22q.15.17.22.29.08.12.23.45l.48 1.05q.33.72 2.13 4.15 1.8 3.44 2.4 4.79t1.17 2.67q1.2 2.73 2.17 4.45.98 1.73.98 2.27 0 .33-.92.76-.91.44-1.27.44-.63 0-1.17-1.62l-.57-1.14q-.57-1.23-1.53-3.23-.96-1.99-1.83-3.76-.69.03-1.41.03-.69.06-2.76.06m-4.08-2.07 3.27-.03h4.02q-.3-.6-.71-1.5-.4-.9-.48-1.04-.07-.13-.22-.46t-.3-.63-.35-.72q-.19-.42-.37-.77-.18-.34-.36-.64-.39-.69-.54-.69t-.39.31q-.24.32-.56.83-.31.51-.58.99-.81 1.5-.95 1.71-.13.21-.33.57-.19.36-.54.96-.34.6-.61 1.11m27.12 9.3q.51 0 .51.72 0 1.71-4.44 1.71-1.89 0-3.36-.6t-2.28-1.56q-1.68-1.98-1.68-4.41 0-3.12 2.34-5.06 2.34-1.93 5.82-1.93t3.48.99q0 .69-.24.78t-.36.09h-.54q-3.57 0-5.55 1.03-1.98 1.04-1.98 3.56t1.51 3.82q1.52 1.31 4.25 1.31.63 0 1.44-.23.81-.22 1.08-.22m6.03-6.6-.06 4.32q0 1.23.42 1.87.42.65 1.41.65t1.68-.18q1.29-.36 1.29.36 0 2.01-3.72 2.01-2.1 0-3.27-1.89-.57-1.2-.57-2.85l.06-3.48.06-2.52q0-.42-.12-.53-.12-.1-.45-.1l-1.17.09q-.75 0-.75-.48 0-.84.19-1.19.2-.34.74-.34l1.17.09q.42 0 .42-1.02v-1.86q0-.78.03-.9.36-.18 2.37-.18.54 0 .54.57l-.09 3.3q.36.03 1.17.03l2.4-.18q.48 0 .48.57 0 1.65-1.62 1.65l-1.95-.12q-.48 0-.6.06-.06.54-.06 2.25m5.28 7.2 1.08.12q1.2 0 2.16-.53.96-.52.96-1.51 0-.36-.14-.77-.13-.4-.96-1.17-.82-.76-1.51-1.75t-.69-2.22q0-1.2 1.08-2.52.51-.63 1.53-1.07 1.02-.43 1.99-.43.98 0 1.2.22.23.23.17.65l-.24.87q-.45-.12-1.04-.12-.58 0-1.21.46-.63.47-.63 1.19t.54 1.45q.54.74 1.2 1.28t1.2 1.47.54 2.01q0 2.07-1.83 3.13-1.83 1.07-4.35 1.07-.66 0-.96-.26-.3-.25-.3-.81 0-.55.21-.76m24.84-17.46q-.99-.33-2.39-.33-1.39 0-2.5.7-1.11.71-1.11 2.01 0 1.31.78 2.27t1.89 1.75q1.11.8 2.2 1.68 1.1.89 1.88 2.21t.78 2.97-1.38 3.33q-2.25 2.7-7.44 2.7-.72 0-1.28-.08-.55-.07-.85-.1t-.63-.09q-.72-.12-.72-.36 0-1.59.57-1.95 1.23.39 2.52.39 6.24 0 6.24-3.57 0-1.86-2.64-3.81-1.11-.81-2.21-1.68-1.09-.87-1.87-2.18-.78-1.3-.78-2.86 0-2.37 2.05-3.9 2.06-1.53 4.82-1.53.6 0 1.6.13 1.01.14 1.08.35.08.21.08.48t-.18.79q-.18.53-.51.68m10.41 13.89q.48-.48.81-1.14l.42-.84q.12-.18 1.14-2.16 2.13-4.14 2.61-4.14.3 0 .82.27.53.27.59.48 0 .15-3.08 6.01-3.07 5.87-3.31 6.35-3.51 7.29-4.11 7.29-.48 0-1.05-.26-.57-.25-.63-.46 0-.18.45-1.17.33-.6.93-1.65 1.41-2.46 1.69-3.11.29-.64.6-1.17.32-.52.56-.97t.24-.6-.74-1.11q-.73-.96-1.45-2-.72-1.03-1.59-2.32t-1.11-1.65l-.69-1.05q-.99-1.47-.99-1.82 0-.34.69-.7t1.02-.36.9.58q.57.59 1.32 1.65.75 1.07 1.38 2.03t1.44 2.25 1.14 1.77m6.63 3.57 1.08.12q1.2 0 2.16-.53.96-.52.96-1.51 0-.36-.14-.77-.13-.4-.96-1.17-.82-.76-1.51-1.75t-.69-2.22q0-1.2 1.08-2.52.51-.63 1.53-1.07 1.02-.43 1.99-.43.98 0 1.2.22.23.23.17.65l-.24.87q-.45-.12-1.04-.12-.58 0-1.21.46-.63.47-.63 1.19t.54 1.45q.54.74 1.2 1.28t1.2 1.47.54 2.01q0 2.07-1.83 3.13-1.83 1.07-4.35 1.07-.66 0-.96-.26-.3-.25-.3-.81 0-.55.21-.76m13.41-7.2-.06 4.32q0 1.23.42 1.87.42.65 1.41.65t1.68-.18q1.29-.36 1.29.36 0 2.01-3.72 2.01-2.1 0-3.27-1.89-.57-1.2-.57-2.85l.06-3.48.06-2.52q0-.42-.12-.53-.12-.1-.45-.1l-1.17.09q-.75 0-.75-.48 0-.84.19-1.19.2-.34.74-.34l1.17.09q.42 0 .42-1.02v-1.86q0-.78.03-.9.36-.18 2.37-.18.54 0 .54.57l-.09 3.3q.36.03 1.17.03l2.4-.18q.48 0 .48.57 0 1.65-1.62 1.65l-1.95-.12q-.48 0-.6.06-.06.54-.06 2.25m16.68 1.26-6.87.03q-1.11 0-1.29.18-.15.21-.15.69 0 2.34 1.33 3.58 1.34 1.25 3.05 1.25t2.67-.45q.03 0 .6-.39t.79-.39q.23 0 .35.18t.12.36q0 1.14-1.68 1.93-1.68.8-3.92.8-2.23 0-4.26-1.8-2.02-1.8-2.02-4.86t1.9-5.04q1.91-1.98 5.12-1.98 2.34 0 3.78 1.38 1.53 1.44 1.53 3.48 0 1.05-1.05 1.05m-7.8-1.47q5.7 0 6.6-.06-.09-1.2-.92-1.98-.82-.78-2.08-.78t-2.36.88q-1.09.89-1.24 1.94m12.49-4.13 1.29.03q.03.03.27 1.02.24-.09 1.26-.51 2.07-.81 3.24-.81 1.95 0 3.12 1.59l.3-.21q.33-.21.42-.27l.36-.21q.3-.18.45-.24t.46-.21q.32-.15.54-.21.23-.06.53-.15.57-.12 1.29-.12 3.15 0 4.02 3 .24.66.3 3.18v5.58q0 1.02-.35 1.3-.34.29-1.29.29-.94 0-1.14-.14-.19-.13-.19-.67l.09-1.8v-4.38q0-.66-.02-1.14-.01-.48-.15-1.2-.13-.72-.4-1.02-.75-.84-2.22-.84-2.79 0-2.79 1.83l.09 2.73v4.08q0 1.32-.24 1.74-.12.21-.54.21-1.68 0-1.95-.42-.21-.3-.17-.93.05-.63.05-.72l.15-5.31q0-1.71-.57-2.34t-1.77-.63q-2.88 0-2.88 1.11l.06 2.46-.06 5.19q0 .18.01.55.02.38-.01.5l-.03.36q-.03.24-.09.33-.36.33-.6.36-.66.09-1.04.09-.37 0-.51-.03-.13-.03-.22-.11-.09-.07-.15-.15-.06-.07-.11-.24-.04-.16-.06-.3-.01-.13-.01-.4v-1.53l.12-6.24.06-2.49.06-.6q0-.36.16-.59.17-.22.26-.25.36-.12.6-.12"/></g><path fill="transparent" stroke="transparent" d="M661 0h678v141H661z"/></g></svg>